<svg width="18" height="18" viewBox="0 0 18 18" fill="none" xmlns="http://www.w3.org/2000/svg">
<path d="M16.575 17.5C14.6327 17.5 12.6983 17.0676 10.772 16.2028C8.84583 15.3381 7.08467 14.1077 5.4885 12.5115C3.89883 10.9153 2.67 9.1535 1.802 7.226C0.934 5.2985 0.5 3.36483 0.5 1.425V0.5H5.66925L6.55575 5.05375L3.78275 7.74625C4.19425 8.46675 4.63458 9.13625 5.10375 9.75475C5.57308 10.3734 6.06925 10.9392 6.59225 11.452C7.10125 11.9738 7.66733 12.4668 8.2905 12.9308C8.9135 13.3949 9.60642 13.8411 10.3693 14.2693L13.125 11.4655L17.5 12.3558V17.5H16.575Z" fill="#201F1F"/>
</svg>
