<svg width="18" height="21" viewBox="0 0 18 21" fill="none" xmlns="http://www.w3.org/2000/svg">
<path d="M9 20.1923V18.6923H15.6923C15.7821 18.6923 15.8558 18.6634 15.9135 18.6058C15.9712 18.5481 16 18.4743 16 18.3845V17.5H12.4615V10.423H16V9C16 7.06667 15.3167 5.41667 13.95 4.05C12.5833 2.68333 10.9333 2 9 2C7.06667 2 5.41667 2.68333 4.05 4.05C2.68333 5.41667 2 7.06667 2 9V10.423H5.5385V17.5H2.30775C1.80258 17.5 1.375 17.325 1.025 16.975C0.675 16.625 0.5 16.1974 0.5 15.6923V9C0.5 7.83083 0.723083 6.73083 1.16925 5.7C1.61542 4.66917 2.22442 3.76792 2.99625 2.99625C3.76792 2.22442 4.66917 1.61542 5.7 1.16925C6.73083 0.723084 7.83083 0.5 9 0.5C10.1692 0.5 11.2692 0.723084 12.3 1.16925C13.3308 1.61542 14.2321 2.22442 15.0038 2.99625C15.7756 3.76792 16.3846 4.66917 16.8307 5.7C17.2769 6.73083 17.5 7.83083 17.5 9V18.3845C17.5 18.8897 17.325 19.3173 16.975 19.6673C16.625 20.0173 16.1974 20.1923 15.6923 20.1923H9ZM2.30775 16H4.0385V11.923H2V15.6923C2 15.7821 2.02883 15.8558 2.0865 15.9135C2.14417 15.9712 2.21792 16 2.30775 16ZM13.9615 16H16V11.923H13.9615V16Z" fill="white"/>
</svg>
