<svg width="16" height="20" viewBox="0 0 16 20" fill="none" xmlns="http://www.w3.org/2000/svg">
<path d="M8.00287 9.86037C8.50037 9.86037 8.92571 9.6832 9.27887 9.32887C9.63221 8.97453 9.80888 8.54862 9.80888 8.05112C9.80888 7.55362 9.63171 7.1282 9.27737 6.77487C8.92304 6.4217 8.49704 6.24512 7.99937 6.24512C7.50187 6.24512 7.07654 6.42228 6.72338 6.77662C6.37004 7.13095 6.19338 7.55695 6.19338 8.05462C6.19338 8.55212 6.37054 8.97745 6.72488 9.33062C7.07921 9.68378 7.50521 9.86037 8.00287 9.86037ZM8.00112 19.5046C5.48446 17.324 3.59729 15.2945 2.33962 13.4164C1.08196 11.538 0.453125 9.81362 0.453125 8.24312C0.453125 5.93545 1.19954 4.0672 2.69237 2.63837C4.18537 1.20953 5.95496 0.495117 8.00112 0.495117C10.0473 0.495117 11.8169 1.20953 13.3099 2.63837C14.8027 4.0672 15.5491 5.93545 15.5491 8.24312C15.5491 9.81362 14.9203 11.538 13.6626 13.4164C12.405 15.2945 10.5178 17.324 8.00112 19.5046Z" fill="#201F1F"/>
</svg>
