<svg width="594" height="81" viewBox="0 0 594 81" fill="none" xmlns="http://www.w3.org/2000/svg">
<path d="M0.668 53.364H23.52C23.52 57.656 23.984 59.512 25.84 60.672C28.392 62.18 28.624 62.18 47.184 62.296C72.472 62.18 72.472 62.18 72.472 55.452C72.472 50.812 70.732 49.652 63.192 49.536C60.524 49.536 52.868 49.188 44.632 48.84C36.048 48.376 28.392 48.028 25.84 48.028C14.588 47.68 9.136 46.056 5.656 42.112C2.756 38.632 1.364 33.644 1.364 25.872C1.364 14.388 4.032 7.42799 9.484 4.412C15.516 1.164 22.244 0.467995 50.2 0.467995C71.776 0.467995 79.896 1.512 85.464 4.75999C90.452 7.892 92.54 12.88 92.54 22.392C92.54 22.856 92.54 24.48 92.424 25.988H69.688C69.572 22.16 69.224 21.116 67.948 19.956C66.092 18.448 63.424 18.216 45.676 18.216C25.84 18.216 24.216 18.68 24.216 24.364C24.216 27.148 25.26 28.656 27.464 29.352C29.552 29.932 35.584 30.28 52.52 30.744C77.46 31.44 82.68 32.136 87.552 35.036C93.236 38.4 95.324 43.736 95.324 54.756C95.324 67.864 92.308 74.476 84.768 77.492C80.012 79.58 70.732 80.16 46.604 80.16C23.404 80.16 13.892 79.116 8.324 75.984C2.524 72.736 0.668 68.096 0.668 57.076V53.364ZM107.073 1.62799H192.681V19.84H130.273V31.092H189.549V48.144H130.273V60.44H193.145V79H107.073V1.62799ZM204.01 79V1.62799H260.966C287.646 1.62799 287.646 1.62799 292.634 4.644C298.55 8.24 300.29 13.344 300.29 26.8C300.29 38.052 299.13 42.344 295.302 45.592C292.982 47.448 290.778 48.376 285.906 49.072C297.854 50.464 299.942 53.944 299.478 71.808V79H276.278V74.94C276.278 59.976 275.466 59.164 260.85 59.396H227.558V79H204.01ZM227.558 40.024H260.734C272.334 39.792 272.334 39.792 273.958 38.864C276.046 37.588 276.742 35.384 276.742 30.28C276.742 25.176 275.93 22.972 273.61 21.928C271.87 21.116 271.638 21.116 260.734 21H227.558V40.024ZM305.088 1.62799H330.956L359.144 59.512H363.668L391.508 1.62799H417.26L379.444 79H343.368L305.088 1.62799ZM426.431 1.62799H451.139V79H426.431V1.62799ZM463.512 1.62799H556.196V19.376L499.588 60.44L557.936 59.628V79H462.236V60.904L518.148 20.188L463.512 21V1.62799ZM569.102 1.62799H593.81V79H569.102V1.62799Z" fill="white"/>
</svg>
