<svg width="1160" height="115" viewBox="0 0 1160 115" fill="none" xmlns="http://www.w3.org/2000/svg">
<path d="M0.668 87.364H23.52C23.52 91.656 23.984 93.512 25.84 94.672C28.392 96.18 28.624 96.18 47.184 96.296C72.472 96.18 72.472 96.18 72.472 89.452C72.472 84.812 70.732 83.652 63.192 83.536C60.524 83.536 52.868 83.188 44.632 82.84C36.048 82.376 28.392 82.028 25.84 82.028C14.588 81.68 9.136 80.056 5.656 76.112C2.756 72.632 1.364 67.644 1.364 59.872C1.364 48.388 4.032 41.428 9.484 38.412C15.516 35.164 22.244 34.468 50.2 34.468C71.776 34.468 79.896 35.512 85.464 38.76C90.452 41.892 92.54 46.88 92.54 56.392C92.54 56.856 92.54 58.48 92.424 59.988H69.688C69.572 56.16 69.224 55.116 67.948 53.956C66.092 52.448 63.424 52.216 45.676 52.216C25.84 52.216 24.216 52.68 24.216 58.364C24.216 61.148 25.26 62.656 27.464 63.352C29.552 63.932 35.584 64.28 52.52 64.744C77.46 65.44 82.68 66.136 87.552 69.036C93.236 72.4 95.324 77.736 95.324 88.756C95.324 101.864 92.308 108.476 84.768 111.492C80.012 113.58 70.732 114.16 46.604 114.16C23.404 114.16 13.892 113.116 8.324 109.984C2.524 106.736 0.668 102.096 0.668 91.076V87.364ZM158.916 34.468C191.28 34.468 198.472 35.28 204.388 39.804C210.304 44.328 212.044 52.1 212.044 74.256C212.044 96.528 210.304 104.3 204.388 108.824C198.472 113.348 191.164 114.16 159.148 114.16C126.552 114.16 119.36 113.348 113.444 108.824C107.412 104.184 105.788 96.528 105.788 73.792C105.788 52.216 107.528 44.328 113.444 39.804C119.36 35.28 126.668 34.468 158.916 34.468ZM158.916 54.536C142.908 54.536 139.66 54.652 136.412 55.58C130.612 57.088 129.336 60.684 129.336 76.344C129.336 85.972 130.148 89.104 132.816 91.308C135.948 93.744 139.66 94.092 159.148 94.092C178.056 94.092 182 93.628 185.016 91.308C187.684 89.22 188.496 85.856 188.496 76.46C188.496 65.324 187.916 60.916 185.828 58.248C183.392 54.884 180.724 54.536 158.916 54.536ZM222.409 87.364H245.261C245.261 91.656 245.725 93.512 247.581 94.672C250.133 96.18 250.365 96.18 268.925 96.296C294.213 96.18 294.213 96.18 294.213 89.452C294.213 84.812 292.473 83.652 284.933 83.536C282.265 83.536 274.609 83.188 266.373 82.84C257.789 82.376 250.133 82.028 247.581 82.028C236.329 81.68 230.877 80.056 227.397 76.112C224.497 72.632 223.105 67.644 223.105 59.872C223.105 48.388 225.773 41.428 231.225 38.412C237.257 35.164 243.985 34.468 271.941 34.468C293.517 34.468 301.637 35.512 307.205 38.76C312.193 41.892 314.281 46.88 314.281 56.392C314.281 56.856 314.281 58.48 314.165 59.988H291.429C291.313 56.16 290.965 55.116 289.689 53.956C287.833 52.448 285.165 52.216 267.417 52.216C247.581 52.216 245.957 52.68 245.957 58.364C245.957 61.148 247.001 62.656 249.205 63.352C251.293 63.932 257.325 64.28 274.261 64.744C299.201 65.44 304.421 66.136 309.293 69.036C314.977 72.4 317.065 77.736 317.065 88.756C317.065 101.864 314.049 108.476 306.509 111.492C301.753 113.58 292.473 114.16 268.345 114.16C245.145 114.16 235.633 113.116 230.065 109.984C224.265 106.736 222.409 102.096 222.409 91.076V87.364ZM324.268 35.628H417.88V55.348H383.428V113H358.72V55.348H324.268V35.628ZM427.79 35.628H513.398V53.84H450.99V65.092H510.266V82.144H450.99V94.44H513.862V113H427.79V35.628ZM524.727 35.628H566.023L606.507 93.28H608.943L608.363 35.628H632.375V113H591.427L550.711 55.232H548.159L548.739 113H524.727V35.628ZM646.699 35.628H671.407V113H646.699V35.628ZM685.749 113V35.628H741.313C766.949 35.744 767.761 35.744 772.053 37.832C777.737 40.5 779.941 45.604 779.941 55.812C779.941 66.832 777.273 71.356 769.501 73.56C779.709 75.3 782.841 79.824 782.841 92.236C782.841 103.024 780.057 108.592 773.561 111.144C770.893 112.188 766.485 112.652 759.525 112.884C758.597 112.884 752.565 112.884 741.429 113H685.749ZM708.137 66.136H741.313C749.317 66.136 752.797 65.904 754.305 65.324C756.161 64.628 757.089 62.656 757.089 59.756C757.089 56.624 756.045 54.884 753.725 54.304C752.449 53.956 752.217 53.956 741.313 53.84H708.137V66.136ZM708.137 94.44H741.429C755.233 94.324 755.233 94.324 756.973 93.628C759.061 92.816 759.989 91.076 759.989 87.712C759.989 84.232 758.945 82.608 756.509 81.912C755.233 81.68 755.233 81.68 741.429 81.564H708.137V94.44ZM794.581 35.628H819.289V113H794.581V35.628ZM833.631 35.628H858.339V93.28H913.323V113H833.631V35.628ZM922.299 35.628H947.007V113H922.299V35.628ZM956.917 35.628H1050.53V55.348H1016.08V113H991.369V55.348H956.917V35.628ZM1132.98 113L1126.37 99.892H1075.21L1068.6 113H1041.69L1082.63 35.628H1119.29L1159.77 113H1132.98ZM1118.13 82.956L1103.17 53.608H1098.53L1083.56 82.956H1118.13ZM1073.93 18.924L1083.1 0.827992L1111.75 21.476L1107.11 30.292L1073.93 18.924Z" fill="white"/>
</svg>
