<?xml version="1.0" encoding="UTF-8"?>
<svg id="uuid-c3b9900f-46af-4d30-a92a-f93071ff861e" xmlns="http://www.w3.org/2000/svg" version="1.1" viewBox="0 0 1921.7 512.3">
  <defs>
    <style>
      .cls-1 {
        fill: #201f1f;
        stroke-width: 0px;
      }
    </style>
  </defs>
  <g id="uuid-7a6bfc89-65a8-49d0-b960-d46b1cc8e4e1">
    <path class="cls-1" d="M1898.1,355.5H381c-5.8,0-10.6-4.8-10.6-10.6V23.6c0-5.8,4.8-10.6,10.6-10.6h1517.1c5.8,0,10.6,4.8,10.6,10.6v321.4c0,5.8-4.8,10.6-10.6,10.6h0ZM381,14c-5.3,0-9.6,4.3-9.6,9.6v321.4c0,5.3,4.3,9.6,9.6,9.6h1517.1c5.3,0,9.6-4.3,9.6-9.6V23.6c0-5.3-4.3-9.6-9.6-9.6H381Z"/>
    <path class="cls-1" d="M1896.5,439.4l-.8-.6c-4-3.2-6.3-8-6.3-13.1v-58.1h17.7v44.1h-10.6v27.8h0ZM1890.4,368.5v57.1c0,4.5,1.8,8.6,5.1,11.6v-26.6h10.6v-42.1h-15.7Z"/>
    <path class="cls-1" d="M1909.7,485.1h-7.5l-6.7-37.1v-37.3h16.1c2.5,0,4.5,2,4.5,4.5v.8h-3.2c-.8,0-1.5.7-1.5,1.5v25.8c0,.8.7,1.5,1.5,1.5h3.2v4.8h-3.2c-.8,0-1.5.7-1.5,1.5v25.8c0,.8.7,1.5,1.5,1.5h3.2v.5c0,3.5-3,6.3-6.5,6.3h0ZM1903,484.1h6.7c2.8,0,5.1-2.1,5.4-4.8h-2.2c-1.4,0-2.5-1.1-2.5-2.5v-25.8c0-1.4,1.1-2.5,2.5-2.5h2.2v-2.8h-2.2c-1.4,0-2.5-1.1-2.5-2.5v-25.8c0-1.4,1.1-2.5,2.5-2.5h2.2c0-1.9-1.6-3.4-3.5-3.4h-15.1v36.2l6.5,36.2h0Z"/>
    <path class="cls-1" d="M1916.6,445.7h-3.7c-1.4,0-2.5-1.1-2.5-2.5v-25.8c0-1.4,1.1-2.5,2.5-2.5h3.7c1.4,0,2.5,1.1,2.5,2.5v25.8c0,1.4-1.1,2.5-2.5,2.5ZM1912.9,416c-.8,0-1.5.7-1.5,1.5v25.8c0,.8.7,1.5,1.5,1.5h3.7c.8,0,1.5-.7,1.5-1.5v-25.8c0-.8-.7-1.5-1.5-1.5h-3.7Z"/>
    <path class="cls-1" d="M1916.6,479.2h-3.7c-1.4,0-2.5-1.1-2.5-2.5v-25.8c0-1.4,1.1-2.5,2.5-2.5h3.7c1.4,0,2.5,1.1,2.5,2.5v25.8c0,1.4-1.1,2.5-2.5,2.5ZM1912.9,449.5c-.8,0-1.5.7-1.5,1.5v25.8c0,.8.7,1.5,1.5,1.5h3.7c.8,0,1.5-.7,1.5-1.5v-25.8c0-.8-.7-1.5-1.5-1.5h-3.7Z"/>
    <path class="cls-1" d="M1854,430.8h-133.6c-5.9,0-10.7-4.8-10.7-10.7v-16.2c0-5.9,4.8-10.7,10.7-10.7h133.6c5.9,0,10.7,4.8,10.7,10.7v16.2c0,5.9-4.8,10.7-10.7,10.7ZM1720.4,394.2c-5.3,0-9.7,4.4-9.7,9.7v16.2c0,5.4,4.4,9.7,9.7,9.7h133.6c5.3,0,9.7-4.4,9.7-9.7v-16.2c0-5.4-4.4-9.7-9.7-9.7h-133.6,0Z"/>
    <path class="cls-1" d="M1243.6,454.8h-349.1c-8.7,0-15.8-7.1-15.8-15.8v-24.3c0-8.7,7.1-15.8,15.8-15.8h349.1c8.7,0,15.8,7.1,15.8,15.8v24.3c0,8.7-7.1,15.8-15.8,15.8ZM894.4,400c-8.1,0-14.8,6.6-14.8,14.8v24.3c0,8.1,6.6,14.8,14.8,14.8h349.1c8.1,0,14.8-6.6,14.8-14.8v-24.3c0-8.1-6.6-14.8-14.8-14.8h-349.1Z"/>
    <path class="cls-1" d="M1347.1,487.4c-18.8,0-34-15.2-34-34s15.2-34,34-34,34,15.2,34,34-15.2,34-34,34ZM1347.1,420.4c-18.2,0-33,14.8-33,33s14.8,33,33,33,33-14.8,33-33-14.8-33-33-33Z"/>
    <path class="cls-1" d="M1347.1,463.6c-5.7,0-10.3-4.6-10.3-10.3s4.6-10.3,10.3-10.3,10.3,4.6,10.3,10.3-4.6,10.3-10.3,10.3ZM1347.1,444.1c-5.1,0-9.3,4.2-9.3,9.3s4.2,9.3,9.3,9.3,9.3-4.2,9.3-9.3-4.2-9.3-9.3-9.3Z"/>
    <path class="cls-1" d="M628.8,487.4c-18.8,0-34-15.2-34-34s15.2-34,34-34,34,15.2,34,34-15.2,34-34,34ZM628.8,420.4c-18.2,0-33,14.8-33,33s14.8,33,33,33,33-14.8,33-33-14.8-33-33-33Z"/>
    <path class="cls-1" d="M628.8,463.6c-5.7,0-10.3-4.6-10.3-10.3s4.6-10.3,10.3-10.3,10.3,4.6,10.3,10.3-4.6,10.3-10.3,10.3ZM628.8,444.1c-5.1,0-9.3,4.2-9.3,9.3s4.2,9.3,9.3,9.3,9.3-4.2,9.3-9.3-4.2-9.3-9.3-9.3Z"/>
    <path class="cls-1" d="M171.1,487.4c-18.8,0-34-15.2-34-34s15.2-34,34-34,34,15.2,34,34-15.2,34-34,34ZM171.1,420.4c-18.2,0-33,14.8-33,33s14.8,33,33,33,33-14.8,33-33-14.8-33-33-33Z"/>
    <path class="cls-1" d="M171.1,463.6c-5.7,0-10.3-4.6-10.3-10.3s4.6-10.3,10.3-10.3,10.3,4.6,10.3,10.3-4.6,10.3-10.3,10.3ZM171.1,444.1c-5.1,0-9.3,4.2-9.3,9.3s4.2,9.3,9.3,9.3,9.3-4.2,9.3-9.3-4.2-9.3-9.3-9.3Z"/>
    <path class="cls-1" d="M1470.2,487.4c-18.8,0-34-15.2-34-34s15.2-34,34-34,34,15.2,34,34-15.2,34-34,34ZM1470.2,420.4c-18.2,0-33,14.8-33,33s14.8,33,33,33,33-14.8,33-33-14.8-33-33-33Z"/>
    <path class="cls-1" d="M1470.2,463.6c-5.7,0-10.3-4.6-10.3-10.3s4.6-10.3,10.3-10.3,10.3,4.6,10.3,10.3-4.6,10.3-10.3,10.3ZM1470.2,444.1c-5.1,0-9.3,4.2-9.3,9.3s4.2,9.3,9.3,9.3,9.3-4.2,9.3-9.3-4.2-9.3-9.3-9.3Z"/>
    <g>
      <path class="cls-1" d="M1593.3,487.4c-18.8,0-34-15.2-34-34s15.2-34,34-34,34,15.2,34,34-15.2,34-34,34ZM1593.3,420.4c-18.2,0-33,14.8-33,33s14.8,33,33,33,33-14.8,33-33-14.8-33-33-33Z"/>
      <path class="cls-1" d="M1593.3,463.6c-5.7,0-10.3-4.6-10.3-10.3s4.6-10.3,10.3-10.3,10.3,4.6,10.3,10.3-4.6,10.3-10.3,10.3ZM1593.3,444.1c-5.1,0-9.3,4.2-9.3,9.3s4.2,9.3,9.3,9.3,9.3-4.2,9.3-9.3-4.2-9.3-9.3-9.3Z"/>
    </g>
    <path class="cls-1" d="M1657.8,477h-11.6l.3-.7c3.1-7.3,4.7-15,4.7-22.9,0-32-26-57.9-57.9-57.9s-57.9,26-57.9,57.9,1.6,15.7,4.7,22.9l.3.7h-17.3l.3-.7c3.1-7.3,4.7-15,4.7-22.9,0-32-26-57.9-57.9-57.9s-57.9,26-57.9,57.9,1.6,15.7,4.7,22.9l.3.7h-17.3l.3-.7c3.1-7.3,4.7-15,4.7-22.9,0-32-26-57.9-57.9-57.9s-57.9,26-57.9,57.9,1.6,15.7,4.7,22.9l.3.7h-12.5v-29.2c0-32.5,26.4-59,59-59h258.2c26.7,0,50.2,18,57,43.8,1.3,4.9,2,10,2,15.2v29.2h0ZM1647.7,476h9v-28.2c0-5-.7-10.1-1.9-14.9-6.7-25.4-29.8-43-56-43h-258.2c-32,0-58,26-58,58v28.2h10c-3-7.2-4.5-14.8-4.5-22.6,0-32.5,26.4-58.9,58.9-58.9s58.9,26.4,58.9,58.9-1.5,15.5-4.5,22.6h14.2c-3-7.2-4.5-14.8-4.5-22.6,0-32.5,26.4-58.9,58.9-58.9s58.9,26.4,58.9,58.9-1.5,15.5-4.5,22.6h14.2c-3-7.2-4.5-14.8-4.5-22.6,0-32.5,26.4-58.9,58.9-58.9s58.9,26.4,58.9,58.9-1.5,15.5-4.5,22.6h0Z"/>
    <path class="cls-1" d="M1347.1,512.3c-23.6,0-44.8-14-54.1-35.6-3.2-7.4-4.8-15.2-4.8-23.3,0-32.5,26.4-58.9,58.9-58.9s58.9,26.4,58.9,58.9-1.6,16-4.8,23.3c-9.3,21.6-30.6,35.6-54.1,35.6h0ZM1347.1,395.4c-31.9,0-57.9,26-57.9,57.9s1.6,15.7,4.7,22.9c9.2,21.3,30.1,35,53.2,35s44-13.7,53.2-35c3.1-7.3,4.7-15,4.7-22.9,0-32-26-57.9-57.9-57.9Z"/>
    <path class="cls-1" d="M1470.2,512.3c-23.6,0-44.8-14-54.1-35.6-3.2-7.4-4.8-15.2-4.8-23.3,0-32.5,26.4-58.9,58.9-58.9s58.9,26.4,58.9,58.9-1.6,16-4.8,23.3c-9.3,21.6-30.6,35.6-54.1,35.6h0ZM1470.2,395.4c-31.9,0-57.9,26-57.9,57.9s1.6,15.7,4.7,22.9c9.2,21.3,30.1,35,53.2,35s44-13.7,53.2-35c3.1-7.3,4.7-15,4.7-22.9,0-32-26-57.9-57.9-57.9Z"/>
    <path class="cls-1" d="M1593.3,512.3c-23.6,0-44.8-14-54.1-35.6-3.2-7.4-4.8-15.2-4.8-23.3,0-32.5,26.4-58.9,58.9-58.9s58.9,26.4,58.9,58.9-1.6,16-4.8,23.3c-9.3,21.6-30.6,35.6-54.1,35.6h0ZM1593.3,395.4c-31.9,0-57.9,26-57.9,57.9s1.6,15.7,4.7,22.9c9.2,21.3,30.1,35,53.2,35s44-13.7,53.2-35c3.1-7.3,4.7-15,4.7-22.9,0-32-26-57.9-57.9-57.9Z"/>
    <path class="cls-1" d="M1873.4,448.4h-172.4c-4,0-7.3-3.3-7.3-7.3v-57.1c0-4,3.3-7.3,7.3-7.3h172.4c4,0,7.3,3.3,7.3,7.3v57.1c0,4-3.3,7.3-7.3,7.3ZM1701,377.8c-3.4,0-6.3,2.8-6.3,6.3v57.1c0,3.5,2.8,6.3,6.3,6.3h172.4c3.4,0,6.3-2.8,6.3-6.3v-57.1c0-3.5-2.8-6.3-6.3-6.3h-172.4Z"/>
    <path class="cls-1" d="M1665.3,477h-8.6v-29.2c0-5-.7-10.1-1.9-14.9-6.7-25.4-29.8-43-56-43h-258.2c-32,0-58,26-58,58v29.2h-418.3c-6.6,0-12-5.4-12-12v-76.2c0-6.6,5.4-12,12-12h730.9c33.1,0,62,23.5,68.7,55.9,1,4.7,1.5,9.5,1.5,14.3v30.1h0ZM1657.8,476h6.6v-29.1c0-4.7-.5-9.5-1.4-14.1-6.6-31.9-35.1-55-67.7-55h-730.9c-6.1,0-11,4.9-11,11v76.2c0,6.1,4.9,11,11,11h417.3v-28.2c0-32.5,26.4-59,59-59h258.2c26.7,0,50.2,18,57,43.8,1.3,4.9,2,10,2,15.2v28.2h0Z"/>
    <path class="cls-1" d="M853.5,467.5h-23.8v-59.7h23.8v59.7ZM830.7,466.5h21.8v-57.7h-21.8v57.7Z"/>
    <path class="cls-1" d="M853.5,453.7h-9.3v-32.2h9.3v32.2ZM845.2,452.7h7.3v-30.2h-7.3v30.2Z"/>
    <path class="cls-1" d="M1694.7,433.2h-31.8v-.4c-6.7-31.9-35.1-55-67.8-55h-730.9c-6.1,0-11,4.9-11,11v1.1h-26.9v-11c0-3.5-2.8-6.4-6.3-6.4h-12.8c-3.5,0-6.3,2.9-6.3,6.4v11h-62.7c-2.1,0-4.1-.8-5.7-2.2l-12.9-11.8c-1.3-1.2-2.1-2.9-2.1-4.7v-3.6h1094.7c5.9,0,11.2,4,12.8,9.6l.2.6h-124.4c-3.4,0-6.3,2.8-6.3,6.3v49.2h0ZM1663.8,432.2h29.9v-48.2c0-4,3.3-7.3,7.3-7.3h123.1c-1.7-4.9-6.4-8.2-11.7-8.2H718.7v2.6c0,1.5.6,3,1.8,4l12.9,11.8c1.4,1.3,3.1,2,5,2h61.7v-10c0-4,3.3-7.4,7.3-7.4h12.8c4,0,7.3,3.3,7.3,7.4v10h24.9c0-6.8,5.4-12.1,12-12.1h730.9c33,0,61.7,23.3,68.6,55.5h0Z"/>
    <path class="cls-1" d="M818.8,471.8h-10.3c-2.3,0-4.2-1.9-4.2-4.2v-56.6h-4.3v-32.1c0-4,3.3-7.4,7.3-7.4h12.8c4,0,7.3,3.3,7.3,7.4v32.1h-4.3v56.6c0,2.3-1.9,4.2-4.2,4.2h0ZM801,409.9h4.3v57.6c0,1.8,1.5,3.2,3.2,3.2h10.3c1.8,0,3.2-1.5,3.2-3.2v-57.6h4.3v-31.1c0-3.5-2.8-6.4-6.3-6.4h-12.8c-3.5,0-6.3,2.9-6.3,6.4v31.1h0Z"/>
    <path class="cls-1" d="M826.2,484.8h-25.1c-.5,0-.9-.3-1-.7-.2-.4,0-.9.3-1.2l7-5.9v-6.2h12.5v6.2l7,5.9c.3.3.5.8.3,1.2-.2.4-.5.7-1,.7h0ZM808.4,471.8v5.6l-7.3,6.2h0c0,.1,25.1.1,25.1.1l.4-.5-.3.4-7.3-6.2v-5.6h-10.5,0Z"/>
    <path class="cls-1" d="M36,113.5l.4-.9c0-.2,9.3-20.3,26.5-47.2,9.1-14.2,26.6-20.5,39.6-23.3,14.1-3,26.3-2.7,26.4-2.7l135.9-2,2,11.7h-.5c-1.3.1-134.7,8.4-155.1,10.9-7.2.9-13.7,3.2-19.3,7-4.7,3.1-8.5,7.5-11.2,12.7l-14.9,28.5-29.8,5.3h0ZM127.7,40.5c-3.4,0-13.5.2-25,2.7-12.9,2.8-30.1,8.9-39,22.8-15.2,23.7-24.1,42.1-26,46.2l27.4-4.9,14.7-28.1c2.8-5.3,6.8-9.8,11.6-13,5.7-3.8,12.3-6.3,19.7-7.2,19.8-2.4,145.1-10.2,154.6-10.8l-1.6-9.7-135.1,2s-.4,0-1.2,0h0Z"/>
    <path class="cls-1" d="M240.3,38.9l2.2-1c1.9-.8,46.1-20.6,57.4-12.3,2.1,1.5,2.9,3.9,2.5,7v.4s-37.9,5.5-37.9,5.5c0,0-24.2.4-24.2.4ZM291.5,24.5c-14.1,0-38.7,10-46.3,13.3l19.2-.3,37.1-5.4c.2-2.6-.5-4.5-2.2-5.7-1.8-1.3-4.5-1.9-7.8-1.9h0Z"/>
    <path class="cls-1" d="M194.2,311.8c-1.4,0-2.7-.5-3.7-1.5-1.1-1-1.6-2.4-1.6-3.8v-63.4c0-2.8,2.1-5,4.8-5.3l75-6.7c1.5-.1,2.9.3,4,1.3,1.1,1,1.7,2.4,1.8,3.8l1.6,66.9c0,2.9-2.2,5.3-5.1,5.4l-76.5,3.2h-.2,0ZM269.2,232c-.1,0-.3,0-.4,0l-75,6.7c-2.2.2-3.9,2-3.9,4.3v63.5c0,1.2.5,2.3,1.3,3.1.9.8,2,1.2,3.2,1.2l76.5-3.2c2.3-.1,4.2-2.1,4.1-4.4l-1.6-66.9c0-1.2-.5-2.3-1.4-3.1-.8-.7-1.8-1.1-2.9-1.1h0Z"/>
    <path class="cls-1" d="M171.1,512.3c-25.5,0-48-16.3-56-40.5-2-6-2.9-12.2-2.9-18.5,0-32.5,26.4-58.9,58.9-58.9s58.9,26.4,58.9,58.9-1,12.5-2.9,18.5c-8,24.2-30.5,40.5-56,40.5ZM171.1,395.4c-31.9,0-57.9,26-57.9,57.9s1,12.3,2.9,18.1c7.8,23.8,30,39.8,55,39.8s47.2-16,55-39.8c1.9-5.9,2.9-12,2.9-18.1,0-32-26-57.9-57.9-57.9h0Z"/>
    <path class="cls-1" d="M280.8,317.1v-.5c0-1,0-2,0-2.9,0-13.3-2-107.2-7.2-184.8-2.8-40.9-6-71.4-9.6-90.7v-.5c-.1,0,38.4-5.6,38.4-5.6v.5c.3,1.4,19.1,137.4,20.8,282.5v.5h-.5c-8.8.3-23.4.9-41.4,1.5h-.5s0,0,0,0ZM265,38.4c3.6,19.3,6.8,49.7,9.6,90.3,5.2,77.6,7.2,171.6,7.2,184.9s0,1.5,0,2.4c17.4-.6,31.6-1.2,40.4-1.5-1.7-140.5-19.4-272.2-20.7-281.4l-36.5,5.3h0Z"/>
    <path class="cls-1" d="M140.3,313.3c-.6,0-1.1-.2-1.6-.6-.5-.4-.7-1-.8-1.6-.2-5.1,1.6-9.9,5.1-13.6,3.5-3.7,8.3-5.7,13.4-5.7h14.5c4.2,0,7.7,3.5,7.7,7.7v.8c0,6.4-5.2,11.5-11.5,11.5l-26.7,1.5h-.1,0ZM156.5,292.8c-4.8,0-9.3,1.9-12.7,5.4s-5.1,8.1-4.9,12.9c0,.4.2.7.4.9.3.2.6.4,1,.3l26.8-1.5c5.8,0,10.6-4.7,10.6-10.5v-.8c0-3.7-3-6.7-6.7-6.7h-14.5Z"/>
    <path class="cls-1" d="M60.6,242.4c-1.5,0-2.8-.6-3.9-1.6-1.3-1.2-2-3-1.8-4.8l6.6-68.1c1.4-14.8,14.2-26.1,29.1-25.6l67.4,1.9c2.9,0,5.6,1.3,7.6,3.4s3,4.9,2.9,7.8l-2,59.5c-.2,5.9-4.6,10.8-10.4,11.8l-94.4,15.6c-.3,0-.6,0-1,0h0ZM89.7,143.4c-14,0-25.9,10.7-27.3,24.8l-6.6,68.1c-.1,1.5.4,2.9,1.5,3.9,1.1,1,2.6,1.5,4,1.2l94.4-15.6c5.3-.9,9.3-5.4,9.5-10.8l2-59.5c0-2.6-.9-5.1-2.6-7s-4.2-3-6.9-3.1l-67.4-1.9c-.3,0-.5,0-.8,0h0Z"/>
    <path class="cls-1" d="M36.3,413.7v-70.3l-19.6,2c-2,.2-3.9.9-5.5,2.1l-.9.6v-1.1c.1,0,.7-6.4-2.6-8.5l-.3-.2v-.5c0-.5,2-4.9,29.5-9,10.8-1.6,24.2-2.9,40-3.9h0c21.1-1.4,56.3-3.1,104.7-5.1h.5s0,.5,0,.5c-.2,8.5-.4,16.4-.6,23.6v.4h-.4c-60.1,8-74.7,36.9-80.8,61.1v.3c0,0-64,7.7-64,7.7h0ZM37.3,342.3v70.3l62.1-7.5c1.8-7.1,5.5-21.4,17.5-34.1,13.7-14.3,35.1-23.5,63.6-27.4.2-6.9.3-14.5.5-22.6-48.1,2-83.1,3.7-104.1,5.1h0c-15.7,1-29.1,2.3-39.9,3.9-22.6,3.3-27.5,6.9-28.5,8,2.7,2,3,6.3,3,8.2,1.6-.9,3.3-1.5,5.1-1.7l20.7-2.2h0Z"/>
    <path class="cls-1" d="M181,321v-.5c1.5-68,2.8-156.4.3-191.3v-.5s.5,0,.5,0c36,.6,86.1,2,91.9,2.1l-.2-2.4h1v.5c.1.8.1,1.6.2,2.5v.5h0c5.1,77,7,168.8,7,181.9s0,1.9,0,2.9v.5h-.5c-25.1.9-62.9,2.4-99.7,3.9h-.5s0,0,0,0ZM182.4,129.6c2.4,35.2,1.2,122.7-.3,190.3,36.5-1.5,73.7-3,98.7-3.9,0-.9,0-1.7,0-2.4,0-13.1-1.9-104.9-7-181.9-5.3-.1-55.3-1.5-91.4-2.1h0Z"/>
    <path class="cls-1" d="M7.3,338.8c-1,0-2-.5-3-1.4-3.3-3.2-4.8-11.5-4.3-15.5l5.5-55.1c.6-5.5,3.2-10.7,7.3-14.5,2.6-2.5,5.7-4.3,9.1-5.3l17.9-5.7-2.4,88.7h-.4c-22.6,3.4-27.5,7-28.5,8l.8.5-1.5.2c-.2,0-.3,0-.5,0h0ZM22.3,247.9c-3.3,1-6.2,2.8-8.7,5.1-3.9,3.7-6.4,8.6-7,13.9l-5.5,55.1c-.4,3.9,1,11.8,4,14.7.8.7,1.6,1.1,2.4,1.1.6-1.1,4.4-5,29-8.7l2.4-86.5-16.6,5.3h0Z"/>
    <path class="cls-1" d="M41,477h-11.7c-6.5,0-12.7-2.6-17.3-7.2-4.6-4.6-7.1-10.8-7.1-17.3l.2-27.9h.2c8.6-8,11.8-23.4,12.4-26.4,0-.5.1-1,.1-1.5l.3-35.7c0-.8-.4-1.5-1.1-1.8-.7-.4-1.5-.3-2.1.1l-9.4,6.4v-8.9c0-4,2-7.7,5.2-10,1.8-1.3,3.8-2,6-2.3l20.7-2.2v70.8s0,2.6.2,6.7h0c.5,12.2,1.7,42.2,3.4,56.6v.6c0,0,0,0,0,0ZM6.1,425l-.2,27.5c0,6.3,2.4,12.2,6.8,16.6,4.4,4.5,10.3,6.9,16.6,6.9h10.6c-1.6-14.6-2.9-44-3.3-56.1h0c-.2-4.1-.2-6.7-.2-6.7v-69.7l-19.6,2c-2,.2-3.9.9-5.5,2.1-3,2.1-4.8,5.6-4.8,9.2v7s7.8-5.4,7.8-5.4c.9-.6,2.2-.7,3.2-.2,1,.5,1.6,1.6,1.6,2.7l-.3,35.7c0,.5,0,1.1-.1,1.6-.8,4.3-4,18.8-12.5,26.7h0Z"/>
    <path class="cls-1" d="M5.1,425.9l.3-61.4,8.9-6c.9-.6,2.1-.7,3.2-.2s1.6,1.6,1.6,2.7l-.3,35.7c0,.5,0,1.1-.1,1.6h0c-.8,4.3-4.1,19-12.7,26.8l-.8.8h0ZM6.4,365l-.3,58.5c8-8,11-22.6,11.6-25.5h0c0-.5.1-1,.1-1.5l.3-35.7c0-.8-.4-1.5-1.1-1.8-.7-.4-1.5-.3-2.1.1l-8.4,5.8h0Z"/>
    <path class="cls-1" d="M35.8,172.3h-.4c-3.3-.9-8.7-5.2-12-11.4-2.4-4.5-4.7-11.7-1.6-20.6,5.9-17,14.6-27.7,14.7-27.8h.1c0-.1,25.1-4.6,25.1-4.6l-4.5,20.6c-6.4,8.4-13.8,23.4-21.2,43.3l-.2.4h0ZM37.1,113.3c-1,1.3-8.9,11.6-14.4,27.3-3,8.5-.8,15.5,1.5,19.8,3.2,6,8.2,9.7,10.9,10.6,5.2-13.8,13.1-32.4,21.1-43l4.1-18.9-23.3,4.1Z"/>
    <path class="cls-1" d="M12.6,253.9l.2-1.4c2.5-19.4,11.9-53.5,22.2-81,5.2-13.9,13.2-32.8,21.4-43.6,2.9-3.8,5.6-6.3,8.1-7.5,7.9-3.8,54.8-3.8,57.3-3.8h152l1.1,15.1h-.5c-.5,0-54.4-1.5-92.4-2.1-12.4-.2-22-.3-28.3-.3s-15-.1-22-.2c-39.1-.6-64.8-1.1-72.4,21.9-17,52-19.2,90.6-19.3,91v.4s-17.6,5.6-17.6,5.6c-3.3,1-6.2,2.8-8.7,5.1,0,0-1,1-1,1ZM121.7,117.6c-.6,0-49.2,0-56.9,3.8-2.3,1.1-5,3.6-7.7,7.2-6.4,8.4-13.8,23.4-21.2,43.3-10.1,26.9-19.2,59.9-22,79.5,2.4-2,5.1-3.5,8-4.4l16.9-5.4c.3-4,3.1-41.3,19.3-90.9,7.7-23.7,33.8-23.3,73.3-22.6,7,.1,14.3.2,22,.2s15.9.1,28.3.3c36,.6,86.1,1.9,91.9,2.1l-.9-13.1H121.7s0,0,0,0Z"/>
    <path class="cls-1" d="M628.8,512.3c-24,0-45.3-14.3-54.5-36.5-3-7.1-4.5-14.7-4.5-22.5,0-32.5,26.4-58.9,58.9-58.9s58.9,26.4,58.9,58.9-1.5,15.3-4.4,22.5c-9.2,22.1-30.5,36.5-54.5,36.5h0ZM628.8,395.4c-32,0-57.9,26-57.9,57.9s1.5,15.1,4.4,22.1c9,21.8,30,35.8,53.6,35.8s44.6-14.1,53.6-35.8c2.9-7,4.4-14.5,4.4-22.1,0-32-26-57.9-57.9-57.9Z"/>
    <path class="cls-1" d="M359.2,432.6h-73.7c-2.8,0-5.4-1.5-6.8-3.9l-8.2-14.2c-.6-1-.5-2.1,0-3.1.6-1,1.6-1.5,2.7-1.5h78.6c2.2,0,4.2,1.4,5,3.4l5.5,14.7c.4,1,.2,2.2-.4,3.1-.6.9-1.7,1.5-2.8,1.5h0ZM273.2,410.9c-.8,0-1.4.4-1.8,1s-.4,1.4,0,2.1l8.2,14.2c1.2,2.1,3.5,3.4,5.9,3.4h73.7c.8,0,1.5-.4,2-1,.5-.7.5-1.5.3-2.2l-5.5-14.7c-.6-1.7-2.2-2.8-4-2.8h-78.6Z"/>
    <path class="cls-1" d="M369.8,460h-73.7c-2.8,0-5.4-1.5-6.8-3.9l-8.2-14.2c-.6-1-.5-2.1,0-3.1.6-1,1.6-1.5,2.7-1.5h78.6c2.2,0,4.2,1.4,5,3.4l5.5,14.7c.4,1,.2,2.2-.4,3.1-.6.9-1.7,1.5-2.8,1.5h0ZM283.9,438.2c-.8,0-1.4.4-1.8,1s-.4,1.4,0,2.1l8.2,14.2c1.2,2.1,3.5,3.4,5.9,3.4h73.7c.8,0,1.5-.4,2-1,.5-.7.5-1.5.3-2.2l-5.5-14.7c-.6-1.7-2.2-2.8-4-2.8h-78.6Z"/>
    <path class="cls-1" d="M279.1,370.8v-.6s.2-4.4.4-11c.5-13.3,1.1-31.5,1.2-42.6v-.5h.5c18-.7,32.6-1.2,41.4-1.5h.5s0,.5,0,.5c0,7,.1,14.1.1,21.2s0,18.4-.2,27.1v.4l-44,7h0ZM281.8,317c-.1,11.2-.7,29.1-1.2,42.2-.2,5.1-.3,8.9-.4,10.4l41.9-6.6c.1-8.6.2-17.6.2-26.7s0-13.9-.1-20.7c-8.8.3-23,.8-40.4,1.5h0Z"/>
    <path class="cls-1" d="M262.8,373.5l-.2-.3c-1.6-2.6-4.4-6.7-9-11-11.6-10.9-33.6-22.8-72.5-17.6h-.6c0,0,0-.5,0-.5.2-7.2.4-15.1.6-23.6v-.5h.5c36.9-1.6,74.6-3,99.7-3.9h.5s0,.5,0,.5c-.1,11.1-.7,29.4-1.2,42.7-.2,6.5-.4,11-.4,11v.4s-17.4,2.9-17.4,2.9h0ZM198.9,342.4c28.3,0,45.5,9.9,55.3,19.1,4.5,4.2,7.4,8.2,9,10.9l15.9-2.7c0-1.2.2-5.2.4-10.6.5-13.1,1.1-31,1.2-42.1-25,.9-62.3,2.4-98.7,3.9-.2,8.1-.4,15.7-.5,22.5,6.2-.8,12-1.1,17.4-1.1h0Z"/>
    <path class="cls-1" d="M100.3,482.7l-60.3-5.8v-.4c-1.7-14.4-3-44.5-3.4-56.7-.2-4.1-.2-6.7-.2-6.7v-.5s63.1-7.6,63.1-7.6c1.8-7.1,5.5-21.4,17.5-34.1,13.7-14.4,35.2-23.6,63.9-27.4,39.4-5.2,61.6,6.9,73.4,17.9,4.7,4.4,7.6,8.5,9.2,11.2l.4.6-43.7,7.3h-.2c-2.8-2.3-6.2-4.2-9.9-5.8-8-3.4-18-5.4-29.8-6.1-2.8-.2-5.8-.2-8.8-.3h-.2c-23.1,0-52.1,4.9-59.9,27.5-13.4,39.1-10.9,75.2-10.8,75.6l-.2,11.1h0ZM40.9,476l58.4,5.6.2-10c0-.3-2.6-36.6,10.9-75.9,6.3-18.4,27.3-28.2,60.8-28.2h.1v.5c.1,0,.1-.5.1-.5,3.1,0,6.1,0,9,.3,11.9.7,22,2.8,30.1,6.2,3.7,1.6,7.1,3.5,9.9,5.6l41.8-7c-1.6-2.6-4.4-6.4-8.7-10.4h0c-11.6-10.9-33.6-22.8-72.5-17.6-60.1,7.9-74.7,36.8-80.8,61.1v.3c0,0-63,7.6-63,7.6,0,.9.1,3.1.2,6.2.5,12.1,1.7,41.7,3.3,56.2h0Z"/>
    <polygon class="cls-1" points="243.4 463.9 242.4 463.9 243.4 463.8 243.4 463.9"/>
    <polygon class="cls-1" points="243.4 464.5 242.4 464.5 242.4 463.9 243.4 463.9 243.4 464.5"/>
    <path class="cls-1" d="M242.3,472.2h0s-16.3,0-16.3,0l.2-.7c6-17.2,2.9-36.7-8.3-52.1-11.1-15.3-28.6-24.3-46.7-24-18.1-.3-35.6,8.6-46.7,24-11.2,15.4-14.3,34.9-8.3,52.1l.2.7h-16.8v-.5c0-.4-2.7-36.6,10.9-76,6.3-18.4,27.3-28.2,60.8-28.2h.3c14.4.1,35.2,1.5,48.9,12.3,2.5,1.9,4.7,4.2,6.6,6.6.7.9,1.3,1.7,1.9,2.6,3,4.6,5.1,10,6.3,16.1,5.3,18.5,8,37.8,8.2,57.5h0v1.9c0,7.6-.2,7.6-.7,7.6h-.5s0,0,0,0ZM227.4,471.2h14.9c0-1.1.2-4,.2-6.6v-1.9h0c-.2-19.6-2.9-38.8-8.2-57.3-1.2-6-3.2-11.3-6.1-15.8-.6-.9-1.2-1.7-1.8-2.5-1.9-2.4-4.1-4.6-6.5-6.5-13.5-10.6-34.1-12-48.3-12.1h-.3c-23,0-52,4.9-59.8,27.5-12.6,36.7-11.1,70.8-10.9,75.1h14.4c-5.8-17.4-2.5-36.9,8.7-52.4,11.3-15.6,29.1-24.7,47.5-24.4,18.4-.3,36.2,8.8,47.5,24.4,11.2,15.5,14.5,35,8.7,52.4h0Z"/>
    <path class="cls-1" d="M1904.9,368.5H374.2c-9.2,0-16.8-7.5-16.8-16.8V16.8C357.4,7.5,365,0,374.2,0h1530.7C1914.2,0,1921.7,7.5,1921.7,16.8v335c0,9.2-7.5,16.8-16.8,16.8h0ZM374.2,1c-8.7,0-15.8,7.1-15.8,15.8v335c0,8.7,7.1,15.8,15.8,15.8h1530.7c8.7,0,15.8-7.1,15.8-15.8V16.8c0-8.7-7.1-15.8-15.8-15.8H374.2Z"/>
    <polygon class="cls-1" points="588.7 382.5 588.4 382 588.3 381.6 588.5 381.5 588.8 382.5 588.7 382.5"/>
    <polygon class="cls-1" points="590.3 382 590 381.1 590.4 381 590.7 381.9 590.3 382"/>
    <polygon class="cls-1" points="599.8 380 599.6 379 600.5 378.8 600.7 379.8 599.8 380"/>
    <polygon class="cls-1" points="597.8 380.3 597.6 379.3 598.5 379.2 598.6 380.2 597.8 380.3"/>
    <polygon class="cls-1" points="601.7 379.6 601.6 378.6 602.7 378.5 602.8 379.5 601.7 379.6"/>
    <path class="cls-1" d="M603.7,379.3v-1c.2,0,.6-.1.9-.1h.2s.1,1,.1,1h-.2c-.3,0-.7.1-1.1.2Z"/>
    <path class="cls-1" d="M605.7,379.1v-1h-.1c.7,0,1.3-.2,2-.2v1c-.6,0-1.2.1-1.9.2h0Z"/>
    <polygon class="cls-1" points="594 381.1 593.7 380.1 594.4 380 594.6 381 594 381.1"/>
    <rect class="cls-1" x="592" y="380.5" width=".6" height="1" transform="translate(-74.2 153.4) rotate(-13.9)"/>
    <polygon class="cls-1" points="595.8 380.7 595.7 379.7 596.4 379.6 596.6 380.5 595.8 380.7"/>
    <path class="cls-1" d="M303.6,400.9c-16.5-.2-19.9-4.6-24.6-10.6-1.8-2.3-3.9-4.9-6.9-7.6h0c-1.1-1.2-2.8-1.8-4.4-1.6-1.1.2-5.4.8-12.8,1.9-11.2,1.7-26.3,3.9-27.9,4.2l-.3.3-.3-.4c-1.9-2.4-4-4.5-6.4-6.4l-.9-.7,1.1-.2c31-5.4,69.1-11.6,102-16.7.1-8.6.2-17.6.2-26.7v-2.5l10.8,25.4v17.5h137.7c.1-.6.2-1.1.3-1.6.4-1.7,0-2.9-.9-3.7-.7-.6-1.7-1.5-3.1-3.1l-.8-.8h117.4l-.6.8c-.2.3-.5.7-.8,1.2-.9,1.6-2,3.5-3.8,3.4l-18.1.9c11,3.5,37.9,4.8,47.2,4.1v1c-13.8,1.7-31.2,5.1-41.9,16.5h-.1c0,.1-.2.1-.2.1-67,1.4-151.2,3.1-219.9,4.5l-12.2.2c-9.9.2-19.8.4-29.6.6h0ZM272.7,381.9c3.1,2.8,5.2,5.4,7,7.7,4.7,6,7.9,10,23.8,10.2,9.9-.2,19.7-.4,29.6-.6l12.2-.2c68.6-1.4,152.7-3.1,219.7-4.5,8.9-9.3,22-13.4,34.2-15.5-12.1-.1-30.3-1.5-39.1-4.4-.4,0-.8-.5-.7-1,0-.5.4-.9.9-.9l18.2-.9c1.2,0,2.2-1.6,3-2.9,0-.2.2-.4.3-.5h-113.2c1,1,1.7,1.7,2.3,2.2,1.7,1.6,1.8,1.7,1.2,4.7-.1.5-.2,1.2-.4,2v.4h-139.6v-18.4l-8.8-20.6c0,8.4,0,16.7-.2,24.7v.4h-.4c-32.6,5.1-70.4,11.3-101.4,16.7,2.1,1.7,3.9,3.6,5.6,5.7,1.4-.3,6.8-1.1,27.7-4.2,6.8-1,12.6-1.9,12.8-1.9,2-.3,3.9.4,5.2,1.8h0Z"/>
    <path class="cls-1" d="M592.6,381.4l-.2-1c0,0,.2,0,.2,0,.4,0,.7-.2,1.1-.2l.2,1c-.3,0-.7.2-1,.2,0,0-.2,0-.3,0h0Z"/>
    <path class="cls-1" d="M710.7,476.1h-28.6l.3-.7c2.9-7,4.4-14.5,4.4-22.1,0-32-26-57.9-57.9-57.9s-57.9,26-57.9,57.9,1.5,15.1,4.4,22.1l.3.7h-28.6v-.5c0-.3-3-34.8,12.4-72.2.8-2,1.9-4,3.2-5.8.7-1,1.6-2.1,2.4-3,2.8-3.1,6.5-5.9,10.8-8.2.7-.4,1.4-.7,2.1-1.1,1.5-.7,3.1-1.4,4.7-2h.4c.3-.3.6-.4.9-.5l2.8-1c.5-.1,1-.3,1.5-.5h.2c.5-.2,1-.3,1.5-.5h.4c.5-.2.9-.3,1.4-.5h.6c.4-.2.9-.4,1.3-.5h.7c.4-.2.8-.3,1.2-.4l.8-.2c.4,0,.8-.2,1.2-.2l.9-.2c.4,0,.7-.1,1.1-.2l4-.6c.4,0,.7-.1,1.1-.1h1c.7-.2,1.4-.3,2-.4,6.4-.7,13.5-1.1,21-1.1h.1v.5c.1,0,.1-.5.1-.5,3.6,0,7,0,10.2.2,20,1,35.4,4.8,45.8,11.3,1.8,1.1,3.5,2.4,5,3.7,3.8,3.3,6.6,7.2,8.4,11.5h0c15.4,37.4,12.5,71.8,12.5,72.2v.5s0,0,0,0ZM683.6,475.1h26.2c.3-4.2,2-36.4-12.4-71.2h0c-1.7-4.2-4.5-7.9-8.1-11.1-1.5-1.3-3.1-2.5-4.9-3.6-10.2-6.5-25.5-10.2-45.3-11.2-3.2-.2-6.6-.2-10.1-.2h-.3c-7.6,0-14.6.4-20.9,1.1-.7,0-1.3.2-2,.2h-1c-.3.2-.7.2-1.1.3l-4,.6c-.4,0-.7.1-1.1.2l-.8.2c-.4,0-.8.1-1.2.2l-.8.2c-.4,0-.8.2-1.2.3h-.7c-.4.2-.9.4-1.3.5h-.6c-.5.3-.9.4-1.4.5h-.4c-.5.2-1,.4-1.5.5h-.1c-.6.2-1.1.4-1.5.5l-2.8.9c-.3.1-.6.2-.8.3h-.4c-1.6.8-3.1,1.4-4.6,2.1-.8.4-1.5.7-2.2,1.1-4.2,2.3-7.8,4.9-10.6,8-.8.9-1.7,1.9-2.4,2.9-1.2,1.8-2.3,3.7-3.1,5.6-14.4,34.8-12.7,67.1-12.4,71.2h26.2c-2.8-6.9-4.2-14.3-4.2-21.8,0-32.5,26.4-58.9,58.9-58.9s58.9,26.4,58.9,58.9-1.4,14.9-4.2,21.8h0Z"/>
    <path class="cls-1" d="M588.8,382.5l-.3-1c.5-.1,1-.3,1.5-.4l.3,1c-.5.1-1,.3-1.5.4h0Z"/>
    <rect class="cls-1" x="605" y="378.1" width=".8" height="1" transform="translate(-44.1 81.9) rotate(-7.5)"/>
    <rect class="cls-1" x="602.7" y="378.4" width=".9" height="1" transform="translate(-48.7 91.8) rotate(-8.4)"/>
    <path class="cls-1" d="M594.6,381l-.2-1h0c.4,0,.8-.2,1.2-.3h0l.2,1s0,0,0,0c-.4,0-.7.2-1.1.2h0,0Z"/>
    <path class="cls-1" d="M596.6,380.5l-.2-1c.4,0,.8-.2,1.2-.2l.2,1s0,0,0,0c-.4,0-.7.1-1.1.2h0Z"/>
    <path class="cls-1" d="M598.6,380.2l-.2-1c.4,0,.7-.1,1.1-.2l.2,1c-.4,0-.7.1-1.1.2h0Z"/>
    <polygon class="cls-1" points="600.7 379.8 600.5 378.8 601.6 378.6 601.7 379.6 600.7 379.8"/>
    <path class="cls-1" d="M590.7,381.9l-.3-1c.5-.1.9-.2,1.4-.4l.2,1h0c-.5.1-.9.2-1.4.4h0,0Z"/>
    <path class="cls-1" d="M250.8,480.9c-2.2,0-4.3-.8-5.9-2.3-1.7-1.6-2.7-3.8-2.7-6.1v-.8s.3,0,.3,0h-.3c0-.3.2-3.9.2-7.1v-1.9c-.2-19.6-2.9-38.8-8.2-57.3-1.2-6-3.2-11.3-6.1-15.8-.6-.9-1.2-1.7-1.8-2.5l-.3-.4.3-.4c0,0,9.4-1.5,28.1-4.3,6.9-1,12.9-1.9,13.1-2,2-.3,3.9.4,5.3,1.9,3.1,2.8,5.2,5.4,7,7.7,4.7,6,7.9,10,23.8,10.2,10.1-.2,20.1-.4,30.2-.6l11.6-.2c64.1-1.3,194.7-4,216.9-4.4h4.2c0,0-.8.8-.8.8-.8.9-1.7,1.9-2.4,2.9-1.2,1.8-2.3,3.7-3.1,5.6-15.3,37.1-12.4,71.4-12.4,71.7v.5s-26.4.8-26.4.8c-.7,0-1.3-.3-1.7-.8-.7-1-4.1-4.1-19.9-4-17.9.2-210.3,7.3-248.7,8.8h-.3ZM243.2,471.6v.8c0,2.1.9,4,2.4,5.4s3.5,2.1,5.5,2.1c38.4-1.4,230.7-8.6,248.7-8.8,15.3-.1,19.6,2.7,20.8,4.4.2.3.5.4.8.4l25.4-.8c-.3-4.5-1.9-36.8,12.5-71.6.8-2,1.9-4,3.2-5.8.5-.7,1.1-1.5,1.7-2.2h-1.9c-22.2.5-152.8,3.2-216.9,4.5l-11.6.2c-10.1.2-20.1.4-30.2.6-16.5-.2-19.9-4.6-24.6-10.6-1.8-2.3-3.9-4.9-6.9-7.6-1.1-1.2-2.8-1.8-4.4-1.6-1.1.2-5.4.8-13.1,2-10.1,1.5-23.6,3.5-27,4,.5.6.9,1.3,1.4,2,3,4.6,5.1,10,6.3,16.1,5.3,18.5,8,37.9,8.2,57.5v2c0,4.6-.1,6.4-.2,7.1h0Z"/>
    <path class="cls-1" d="M934.8,336.6h-8.7c-3.3,0-6-2.7-6-6V37.8c0-3.3,2.7-6,6-6h8.7c3.3,0,6,2.7,6,6v292.8c0,3.3-2.7,6-6,6h0ZM926.1,32.9c-2.7,0-5,2.2-5,5v292.8c0,2.7,2.2,5,5,5h8.7c2.7,0,5-2.2,5-5V37.8c0-2.7-2.2-5-5-5,0,0-8.7,0-8.7,0Z"/>
    <path class="cls-1" d="M1143.9,336.6h-8.7c-3.3,0-5.9-2.7-5.9-6V37.8c0-3.3,2.7-6,5.9-6h8.7c3.3,0,5.9,2.7,5.9,6v292.8c0,3.3-2.7,6-5.9,6h0ZM1135.2,32.9c-2.7,0-4.9,2.2-4.9,5v292.8c0,2.7,2.2,5,4.9,5h8.7c2.7,0,4.9-2.2,4.9-5V37.8c0-2.7-2.2-5-4.9-5,0,0-8.7,0-8.7,0Z"/>
    <path class="cls-1" d="M1353,336.6h-8.7c-3.3,0-5.9-2.7-5.9-6V37.8c0-3.3,2.7-6,5.9-6h8.7c3.3,0,5.9,2.7,5.9,6v292.8c0,3.3-2.7,6-5.9,6h0ZM1344.4,32.9c-2.7,0-4.9,2.2-4.9,5v292.8c0,2.7,2.2,5,4.9,5h8.7c2.7,0,4.9-2.2,4.9-5V37.8c0-2.7-2.2-5-4.9-5,0,0-8.7,0-8.7,0Z"/>
    <path class="cls-1" d="M1562.2,336.6h-8.7c-3.3,0-5.9-2.7-5.9-6V37.8c0-3.3,2.7-6,5.9-6h8.7c3.3,0,5.9,2.7,5.9,6v292.8c0,3.3-2.7,6-5.9,6h0ZM1553.5,32.9c-2.7,0-4.9,2.2-4.9,5v292.8c0,2.7,2.2,5,4.9,5h8.7c2.7,0,4.9-2.2,4.9-5V37.8c0-2.7-2.2-5-4.9-5,0,0-8.7,0-8.7,0Z"/>
    <path class="cls-1" d="M1771.3,336.6h-8.7c-3.3,0-5.9-2.7-5.9-6V37.8c0-3.3,2.7-6,5.9-6h8.7c3.3,0,5.9,2.7,5.9,6v292.8c0,3.3-2.7,6-5.9,6h0ZM1762.6,32.9c-2.7,0-4.9,2.2-4.9,5v292.8c0,2.7,2.2,5,4.9,5h8.7c2.7,0,4.9-2.2,4.9-5V37.8c0-2.7-2.2-5-4.9-5,0,0-8.7,0-8.7,0Z"/>
    <path class="cls-1" d="M725.7,336.6h-8.7c-3.3,0-6-2.7-6-6V37.8c0-3.3,2.7-6,6-6h8.7c3.3,0,6,2.7,6,6v292.8c0,3.3-2.7,6-6,6h0ZM717,32.9c-2.7,0-5,2.2-5,5v292.8c0,2.7,2.2,5,5,5h8.7c2.7,0,5-2.2,5-5V37.8c0-2.7-2.2-5-5-5,0,0-8.7,0-8.7,0Z"/>
    <path class="cls-1" d="M516.5,336.6h-8.7c-3.3,0-6-2.7-6-6V37.8c0-3.3,2.7-6,6-6h8.7c3.3,0,6,2.7,6,6v292.8c0,3.3-2.7,6-6,6h0ZM507.9,32.9c-2.7,0-5,2.2-5,5v292.8c0,2.7,2.2,5,5,5h8.7c2.7,0,5-2.2,5-5V37.8c0-2.7-2.2-5-5-5h-8.7,0Z"/>
  </g>
</svg>