<?xml version="1.0" encoding="UTF-8"?>
<svg id="uuid-05c627bd-94cf-4403-8f49-00d65b9f750a" data-name="Livello 2" xmlns="http://www.w3.org/2000/svg" viewBox="0 0 2227.1 306.45">
  <defs>
    <style>
      .uuid-ed363213-7f07-42c5-967c-d81ee0032327 {
        fill: #ec1c24;
      }

      .uuid-ed363213-7f07-42c5-967c-d81ee0032327, .uuid-29fd45a2-eda6-4464-975f-b781c1546001 {
        fill-rule: evenodd;
        stroke-width: 0px;
      }

      .uuid-29fd45a2-eda6-4464-975f-b781c1546001 {
        fill: #000;
      }
    </style>
  </defs>
  <g id="uuid-aaeee3c0-d6c9-46c3-b772-6830add0a443" data-name="Layer 1">
    <path class="uuid-29fd45a2-eda6-4464-975f-b781c1546001" d="M1939.83,98.66l-12.67,54.16-118.6.19-19.31,84.98c3.46,13.32,18.06,12.81,34.56,11.31,24.59-2.25,28.51-37.58,28.51-37.58l70.16-.11s-9.08,31.38-11.93,38.04c-19.07,44.48-48.45,54.88-115.7,56.65-74.25,1.92-95.16-19.92-85.5-60.08l20.58-92.6-39.53.06,13.83-54.65,39.14-1.24,12.4-44.68,76.68.59-10.46,43.49,117.84,1.49ZM1414.72,100.45l73.81.86-7.49,30.6,2.47-.98c26.8-29.65,50.98-34.24,100.39-34.33,71.88-.11,89.97,25.14,89.17,67.05l-32.96,136.93-77.12-.85,29.33-119.94s2.68-22.33-30.99-25.68c-47.52-4.72-70.32,3.02-86.98,30.23l-31.17,116.06-78.95-.36,50.5-199.58ZM2132.26,235.12l76.84-.12-3.58,11.29c-20.49,48.45-58.23,60.02-145.36,60.16-59.1.11-96.11-6.77-110.98-20.57-14.87-13.82-13.7-42.53-2.74-87.36,9.75-39.82,22.74-67.22,45.18-80.96,22.43-13.73,61.35-20.64,116.73-20.73,53.13-.08,88.98,4.34,104.16,17.3,17.05,14.54,18.13,41.95,8.56,81.06l-6.81,23.31s-195.17-.64-195.53.79c-4.92,20.12-2.08,23.88,5.32,30.56,7.38,6.72,20.03,5.8,47.01,5.76,26.14-.03,35.29.96,44.14-2.97,8.83-3.95,13.91-4.51,17.07-17.51ZM2147.07,176.85s5.4-17.48-2.17-25.24c-5.96-6.13-42.46-5.77-69.84-5.7-26.55.04-38.85,10.93-43.64,30.63l115.65.3ZM1278.05,233.65l76.82-.12-3.57,11.29c-20.5,48.45-58.23,60.02-145.35,60.16-59.13.11-96.1-6.77-110.99-20.57-14.87-13.82-13.71-42.53-2.74-87.36,9.75-39.82,22.72-67.22,45.17-80.96,22.44-13.73,61.35-20.64,116.73-20.73,53.09-.08,88.97,4.34,104.17,17.3,17.04,14.54,18.13,41.95,8.55,81.06l-6.83,23.31s-195.16-.64-195.53.79c-4.92,20.12-2.06,23.88,5.32,30.56,7.38,6.72,20.03,5.8,47.01,5.76,26.14-.03,35.29.96,44.13-2.97,8.84-3.95,13.91-4.51,17.09-17.51ZM1292.89,175.37s5.36-17.48-2.2-25.24c-5.96-6.13-42.46-5.77-69.85-5.7-26.54.04-38.84,10.93-43.65,30.63l115.7.3ZM773.83,165.49l-77.49.6c5.76-23.55,24.04-46.46,42.79-54.43,18.75-7.96,52.57-15.62,102.35-15.71,54.19-.07,97.31-.16,108.61,11.01,13.13,13,19.86,35.52,12.51,62.61l-33.8,128.33-74.63.94,4.94-24.77c-32.01,33.06-49.31,29.01-99.78,30.26-91.89,2.28-99.51-25.47-89.61-65.89,9.98-40.83,42.3-66.08,125.59-65.24,49.62.52,74.63,1.47,81.69,16.39l5.44-19.92c3.75-15.33.37-15.87-6.6-20.85-6.96-5-18.85-3.36-44.26-3.33-36.75.06-53.27,1.61-57.76,19.99ZM806.86,216.48c-36.54.04-56.3,6.15-59.28,18.3-2.07,8.44.34,13.98,7.24,16.58,6.89,2.61,22.39,3.92,46.5,3.87,39.4-.06,60.28-4.94,64.36-23.88,2.79-13.04-16.79-14.94-58.82-14.87ZM703.75,101.51l-149.24,198.27-100.76.16-50.2-197.48,88.64-.62,28.53,135.87,95.19-136.54,87.85.35ZM1040.66,298.57l-79.06.15,68.08-278.25,79.06-.12-68.08,278.22Z"/>
    <path class="uuid-ed363213-7f07-42c5-967c-d81ee0032327" d="M0,5.07l168.54,292.77,12.24-.23s20.5-189.7,123.4-192.2l15.44,42.22,50.63-103.9L264.34,0l16.44,46.37s-86.26,5.59-119.38,115.26L76.78,5.32s-50.97-.25-76.78-.25Z"/>
  </g>
</svg>